<svg xmlns="http://www.w3.org/2000/svg" width="64" height="64" enable-background="new 0 0 64 64" viewBox="0 0 64 64"><path fill="#CFD8DC" d="M46.5,5.5h-37c-2.209,0-4,1.791-4,4v0.998h37V9.5C42.5,7.291,44.291,5.5,46.5,5.5
										z"/><path fill="#37474F" d="M9.5,5h37v1C44.57,6,43,7.57,43,9.5V11H5V9.5C5,7.019,7.019,5,9.5,5z M43.674,6
										H9.5C7.57,6,6,7.57,6,9.5V10h36V9.5C42,8.088,42.654,6.825,43.674,6z"/><path fill="#FFF" d="M13.5,54.498c0,2.209,1.791,4.002,4,4.002h34v-49c0-2.209-1.791-4-4-4h-38
				c2.209,0,4,1.791,4,4V54.498z"/><path fill="#ECEFF1" d="M12.6,7C13.154,7.687,13,8.549,13,9.5v44.998C13,56.707,15.291,59,17.5,59H52V9.5
				c0-0.951-0.846-1.813-1.4-2.5H12.6z"/><path fill="#37474F" d="M45.041,58H17.5c-1.93,0-3.5-1.571-3.5-3.502V9.5c0-1.412-0.653-2.675-1.675-3.5H47.5
					C49.43,6,51,7.57,51,9.5V54h1V9.5C52,7.019,49.981,5,47.5,5h-38v1C11.43,6,13,7.57,13,9.5v44.998C13,56.98,15.019,59,17.5,59
					h27.541V58z"/><path fill="#FFF" d="M17.5,58.498h38c2.209,0,4-1.791,4-4V53.5h-38v0.998
				C21.5,56.707,19.709,58.498,17.5,58.498z"/><path fill="#CFD8DC" d="M21.449,55c-0.249,1.97-1.912,3-3.949,3h38c2.037,0,3.7-1.03,3.949-3H21.449z"/><path fill="#37474F" d="M55.5,58.998h-38v-1c1.93,0,3.5-1.57,3.5-3.5V53h39v1.498
				C60,56.979,57.981,58.998,55.5,58.998z M20.326,57.998H55.5c1.93,0,3.5-1.57,3.5-3.5V54H22v0.498
				C22,55.91,21.346,57.173,20.326,57.998z"/><path fill="#CCFF90" d="M42.381,20.75L35.619,35.25L42.381,20.75z"/><rect width="1" height="15.531" x="38.599" y="20.022" fill="#37474F" transform="rotate(25.015 39.103 27.788)"/><path fill="#CCFF90" d="M46.518,25.264l-15.035,5.473L46.518,25.264z"/><rect width="1" height="14.41" x="38.771" y="20.757" fill="#37474F" transform="rotate(70.007 39.273 27.964)"/><path fill="#CCFF90" d="M46.25,31.381l-14.501-6.762L46.25,31.381z"/><rect width="16" height="1" x="31" y="27.5" fill="#37474F" transform="rotate(25.001 39.001 28)"/><g><path fill="#CCFF90" d="M41.736,35.518l-5.473-15.035L41.736,35.518z"/><rect width="15.351" height="1" x="31.322" y="27.877" fill="#37474F" transform="rotate(71.034 38.998 28.379)"/></g><g><circle cx="39" cy="28" r="5" fill="#FF8A80"/><path fill="#37474F" d="M39,33.5c-3.032,0-5.5-2.467-5.5-5.5s2.468-5.5,5.5-5.5s5.5,2.467,5.5,5.5
				S42.032,33.5,39,33.5z M39,23.5c-2.481,0-4.5,2.019-4.5,4.5s2.019,4.5,4.5,4.5s4.5-2.019,4.5-4.5S41.481,23.5,39,23.5z"/></g><rect width="1" height="1" x="38" y="26" fill="#37474F"/><rect width="1" height="1" x="41" y="28" fill="#37474F"/><rect width="1" height="1" x="37" y="29" fill="#37474F"/><g><rect width="28" height="6" x="18.5" y="11.5" fill="#CFD8DC"/><path fill="#37474F" d="M47,18H18v-7h29V18z M19,17h27v-5H19V17z"/></g><g><path fill="#CFD8DC" d="M42,46.5H18H42z"/><rect width="24" height="1" x="18" y="46" fill="#37474F"/></g><g><path fill="#CFD8DC" d="M47,43.5H18H47z"/><rect width="29" height="1" x="18" y="43" fill="#37474F"/></g><g><path fill="#CFD8DC" d="M47,40.5H18H47z"/><rect width="29" height="1" x="18" y="40" fill="#37474F"/></g><g><path fill="#CFD8DC" d="M47,37.5H18H47z"/><rect width="29" height="1" x="18" y="37" fill="#37474F"/></g><g><path fill="#CFD8DC" d="M29,34.5H18H29z"/><rect width="11" height="1" x="18" y="34" fill="#37474F"/></g><g><path fill="#CFD8DC" d="M29,31.5H18H29z"/><rect width="11" height="1" x="18" y="31" fill="#37474F"/></g><g><path fill="#CFD8DC" d="M29,28.5H18H29z"/><rect width="11" height="1" x="18" y="28" fill="#37474F"/></g><g><path fill="#CFD8DC" d="M29,25.5H18H29z"/><rect width="11" height="1" x="18" y="25" fill="#37474F"/></g><g><path fill="#CFD8DC" d="M29,22.5H18H29z"/><rect width="11" height="1" x="18" y="22" fill="#37474F"/></g></svg>