<svg xmlns="http://www.w3.org/2000/svg" viewBox="0 0 64 64"><path fill="#2488ff" d="M20,49H44a8,8,0,0,1,8,8v4a0,0,0,0,1,0,0H12a0,0,0,0,1,0,0V57A8,8,0,0,1,20,49Z"/><path fill="#f0d0b4" d="M37,41v8a5,5,0,0,1-10,0V41Z"/><path fill="#f5e0cd" d="M18,14H46a0,0,0,0,1,0,0V31A14,14,0,0,1,32,45h0A14,14,0,0,1,18,31V14A0,0,0,0,1,18,14Z"/><path fill="#f0d0b4" d="M50 19v5a2.006 2.006 0 0 1-2 2H46V17h2A2.006 2.006 0 0 1 50 19zM18 17v9H16a2.006 2.006 0 0 1-2-2V19a2.006 2.006 0 0 1 2-2z"/><path fill="#806749" d="M46,14H15A10.984,10.984,0,0,1,33.31,5.8,8.984,8.984,0,0,1,46,14Z"/><rect width="16" height="8" x="24" y="11" fill="#ffeb99"/><rect width="10" height="5" x="27" y="11" fill="#ffbcab"/><path d="M44,48H38V44.74A15.016,15.016,0,0,0,47,31V27h1a3.009,3.009,0,0,0,3-3V19a3.009,3.009,0,0,0-3-3H47V14A10.016,10.016,0,0,0,37,4a9.784,9.784,0,0,0-3.51.64A11.986,11.986,0,0,0,14,14a1,1,0,0,0,1,1h2v1H16a3.009,3.009,0,0,0-3,3v5a3.009,3.009,0,0,0,3,3h1v4a15.016,15.016,0,0,0,9,13.74V48H20a9.014,9.014,0,0,0-9,9v4a1,1,0,0,0,1,1H52a1,1,0,0,0,1-1V57A9.014,9.014,0,0,0,44,48Zm3-30h1a1,1,0,0,1,1,1v5a1,1,0,0,1-1,1H47ZM17,25H16a1,1,0,0,1-1-1V19a1,1,0,0,1,1-1h1Zm-.95-12A9.985,9.985,0,0,1,32.64,6.54a1,1,0,0,0,1.08.17A7.937,7.937,0,0,1,37,6a8.022,8.022,0,0,1,7.94,7H41V11a1,1,0,0,0-1-1H24a1,1,0,0,0-1,1v2ZM27,17H37a1,1,0,0,0,1-1V12h1v6H25V12h1v4A1,1,0,0,0,27,17Zm1-2V12h8v3ZM19,31V15h4v4a1,1,0,0,0,1,1H40a1,1,0,0,0,1-1V15h4V31a13,13,0,0,1-26,0ZM36,45.44V49a4,4,0,0,1-8,0V45.44a14.566,14.566,0,0,0,8,0ZM51,60H13V57a7.008,7.008,0,0,1,7-7h6.09a5.993,5.993,0,0,0,11.82,0H44a7.008,7.008,0,0,1,7,7Z"/><path d="M28.9 23.447l1-2-1.79-.894-.814 1.63-5.607 1.869.632 1.9 6-2A1 1 0 0 0 28.9 23.447zM26 26v2a1 1 0 0 0 2 0V26a1 1 0 0 0-2 0zM35.684 23.948l6 2 .632-1.9-5.607-1.869-.814-1.63-1.79.894 1 2A1 1 0 0 0 35.684 23.948zM36 26v2a1 1 0 0 0 2 0V26a1 1 0 0 0-2 0zM38 39h2c0-2.626-4.024-4-8-4s-8 1.374-8 4h2c0-.7 2.278-2 6-2S38 38.3 38 39zM11.04 45h2c0-.574.209-.816.682-1.309a3.548 3.548 0 0 0 0-5.386c-.473-.493-.682-.735-.682-1.309s.209-.813.681-1.3A3.6 3.6 0 0 0 14.96 33h-2c0 .572-.209.813-.681 1.306a3.544 3.544 0 0 0 0 5.383c.473.493.682.735.682 1.309s-.209.816-.682 1.309A3.61 3.61 0 0 0 11.04 45zM10.96 20h-2c0 .572-.209.813-.681 1.306a3.544 3.544 0 0 0 0 5.383c.473.493.682.735.682 1.309s-.209.816-.682 1.309A3.61 3.61 0 0 0 7.04 32h2c0-.574.209-.816.682-1.309a3.548 3.548 0 0 0 0-5.386C9.249 24.812 9.04 24.57 9.04 24s.209-.813.681-1.3A3.6 3.6 0 0 0 10.96 20zM8.96 43h-2c0 .572-.209.813-.681 1.306a3.544 3.544 0 0 0 0 5.383c.473.493.682.735.682 1.309s-.209.816-.682 1.309A3.61 3.61 0 0 0 5.04 55h2c0-.574.209-.816.682-1.309a3.548 3.548 0 0 0 0-5.386C7.249 47.812 7.04 47.57 7.04 47s.209-.813.681-1.3A3.6 3.6 0 0 0 8.96 43zM52.96 33h-2c0 .572-.209.813-.681 1.306a3.544 3.544 0 0 0 0 5.383c.473.493.682.735.682 1.309s-.209.816-.682 1.309A3.61 3.61 0 0 0 49.04 45h2c0-.574.209-.816.682-1.309a3.548 3.548 0 0 0 0-5.386c-.473-.493-.682-.735-.682-1.309s.209-.813.681-1.3A3.6 3.6 0 0 0 52.96 33zM53.04 32h2c0-.574.209-.816.682-1.309a3.548 3.548 0 0 0 0-5.386c-.473-.493-.682-.735-.682-1.309s.209-.813.681-1.3A3.6 3.6 0 0 0 56.96 20h-2c0 .572-.209.813-.681 1.306a3.544 3.544 0 0 0 0 5.383c.473.493.682.735.682 1.309s-.209.816-.682 1.309A3.61 3.61 0 0 0 53.04 32zM57.04 47c0-.572.209-.813.681-1.3A3.6 3.6 0 0 0 58.96 43h-2c0 .572-.209.813-.681 1.306a3.544 3.544 0 0 0 0 5.383c.473.493.682.735.682 1.309s-.209.816-.682 1.309A3.61 3.61 0 0 0 55.04 55h2c0-.574.209-.816.682-1.309a3.548 3.548 0 0 0 0-5.386C57.249 47.812 57.04 47.57 57.04 47z"/></svg>